<svg width="817" height="649" viewBox="0 0 817 649" fill="none" xmlns="http://www.w3.org/2000/svg">
<path fill-rule="evenodd" clip-rule="evenodd" d="M703.296 373.893H370.985C368.133 373.893 365.822 371.163 365.822 367.795V103.729C365.822 100.362 368.133 97.6325 370.985 97.6325H703.296C706.146 97.6325 708.458 100.362 708.458 103.729V367.795C708.458 371.163 706.146 373.893 703.296 373.893" fill="#7796FE"/>
<path fill-rule="evenodd" clip-rule="evenodd" d="M703.296 124.099H370.985C368.133 124.099 365.822 121.369 365.822 118.001V103.729C365.822 100.363 368.133 97.6314 370.985 97.6314H703.296C706.146 97.6314 708.458 100.363 708.458 103.729V118.001C708.458 121.369 706.146 124.099 703.296 124.099" fill="#004D54"/>
<path fill-rule="evenodd" clip-rule="evenodd" d="M397.353 307.034H482.237V150.735H397.353V307.034Z" fill="#A2B7FD"/>
<path fill-rule="evenodd" clip-rule="evenodd" d="M506 159.523H686.447V150.735H506V159.523Z" fill="#698BFD"/>
<path fill-rule="evenodd" clip-rule="evenodd" d="M506 179.489H686.447V169.325H506V179.489Z" fill="#698BFD"/>
<path fill-rule="evenodd" clip-rule="evenodd" d="M378.64 119.525H606.429V105.043H378.64V119.525Z" fill="white"/>
<path fill-rule="evenodd" clip-rule="evenodd" d="M671.936 117.298C671.936 118.529 671.092 119.526 670.05 119.526C669.008 119.526 668.163 118.529 668.163 117.298C668.163 116.067 669.008 115.07 670.05 115.07C671.092 115.07 671.936 116.067 671.936 117.298" fill="white"/>
<path fill-rule="evenodd" clip-rule="evenodd" d="M676.507 117.298C676.507 118.529 675.663 119.526 674.621 119.526C673.579 119.526 672.734 118.529 672.734 117.298C672.734 116.067 673.579 115.07 674.621 115.07C675.663 115.07 676.507 116.067 676.507 117.298" fill="white"/>
<path fill-rule="evenodd" clip-rule="evenodd" d="M681.078 117.298C681.078 118.529 680.234 119.526 679.192 119.526C678.15 119.526 677.305 118.529 677.305 117.298C677.305 116.067 678.15 115.07 679.192 115.07C680.234 115.07 681.078 116.067 681.078 117.298" fill="white"/>
<path fill-rule="evenodd" clip-rule="evenodd" d="M597.415 110.191C597.415 108.588 598.463 107.284 599.75 107.284C601.037 107.284 602.085 108.588 602.085 110.191C602.085 111.793 601.037 113.098 599.75 113.098C598.463 113.098 597.415 111.793 597.415 110.191M603.426 116.923L601.614 113.229C602.347 112.53 602.824 111.43 602.824 110.191C602.824 108.078 601.448 106.362 599.75 106.362C598.052 106.362 596.676 108.078 596.676 110.191C596.676 112.305 598.052 114.02 599.75 114.02C600.171 114.02 600.574 113.913 600.94 113.722L602.22 117.679C602.235 117.719 602.252 117.763 602.27 117.803C602.466 118.2 602.883 118.326 603.201 118.084C603.521 117.84 603.622 117.32 603.426 116.923" fill="#121841"/>
<path fill-rule="evenodd" clip-rule="evenodd" d="M615.786 118.764H635.037V105.045H615.786V118.764Z" fill="#F57408"/>
<path fill-rule="evenodd" clip-rule="evenodd" d="M520.656 361.914H679.192V194.223H520.656V361.914Z" fill="#E4EDFF"/>
<path fill-rule="evenodd" clip-rule="evenodd" d="M537.141 291.791H599.925V220.903H537.141V291.791Z" fill="white"/>
<path fill-rule="evenodd" clip-rule="evenodd" d="M613.723 361.914H676.507V303.005H613.723V361.914Z" fill="white"/>
<path fill-rule="evenodd" clip-rule="evenodd" d="M563.26 210.231H639.986V202.607H563.26V210.231Z" fill="#F57408"/>
<path fill-rule="evenodd" clip-rule="evenodd" d="M610.947 224.714H676.507V220.903H610.947V224.714Z" fill="#698BFD"/>
<path fill-rule="evenodd" clip-rule="evenodd" d="M610.947 231.321H676.507V227.509H610.947V231.321Z" fill="#698BFD"/>
<path fill-rule="evenodd" clip-rule="evenodd" d="M610.947 237.925H676.507V234.113H610.947V237.925Z" fill="#698BFD"/>
<path fill-rule="evenodd" clip-rule="evenodd" d="M610.947 244.531H676.507V240.72H610.947V244.531Z" fill="#698BFD"/>
<path fill-rule="evenodd" clip-rule="evenodd" d="M610.947 251.138H676.507V247.328H610.947V251.138Z" fill="#698BFD"/>
<path fill-rule="evenodd" clip-rule="evenodd" d="M610.947 257.744H676.507V253.932H610.947V257.744Z" fill="#698BFD"/>
<path fill-rule="evenodd" clip-rule="evenodd" d="M610.947 264.35H676.507V260.539H610.947V264.35Z" fill="#698BFD"/>
<path fill-rule="evenodd" clip-rule="evenodd" d="M610.947 270.955H676.507V267.145H610.947V270.955Z" fill="#698BFD"/>
<path fill-rule="evenodd" clip-rule="evenodd" d="M610.947 277.563H676.507V273.751H610.947V277.563Z" fill="#698BFD"/>
<path fill-rule="evenodd" clip-rule="evenodd" d="M610.947 284.167H676.507V280.356H610.947V284.167Z" fill="#698BFD"/>
<path fill-rule="evenodd" clip-rule="evenodd" d="M610.947 290.774H676.507V286.962H610.947V290.774Z" fill="#698BFD"/>
<path fill-rule="evenodd" clip-rule="evenodd" d="M811.271 557.797H478.96C476.108 557.797 473.799 555.066 473.799 551.698V287.633C473.799 284.267 476.108 281.537 478.96 281.537H811.271C814.122 281.537 816.433 284.267 816.433 287.633V551.698C816.433 555.066 814.122 557.797 811.271 557.797" fill="#D5DFFE"/>
<path fill-rule="evenodd" clip-rule="evenodd" d="M811.271 308.003H478.96C476.108 308.003 473.799 305.272 473.799 301.905V287.634C473.799 284.268 476.108 281.536 478.96 281.536H811.271C814.122 281.536 816.433 284.268 816.433 287.634V301.905C816.433 305.272 814.122 308.003 811.271 308.003" fill="#004D54"/>
<path fill-rule="evenodd" clip-rule="evenodd" d="M505.329 490.939H590.213V334.64H505.329V490.939Z" fill="#698BFD"/>
<path fill-rule="evenodd" clip-rule="evenodd" d="M613.975 343.426H794.422V334.639H613.975V343.426Z" fill="#698BFD"/>
<path fill-rule="evenodd" clip-rule="evenodd" d="M613.975 363.392H794.422V353.229H613.975V363.392Z" fill="#698BFD"/>
<path fill-rule="evenodd" clip-rule="evenodd" d="M486.615 303.431H714.405V288.949H486.615V303.431Z" fill="white"/>
<path fill-rule="evenodd" clip-rule="evenodd" d="M779.912 301.201C779.912 302.432 779.068 303.429 778.026 303.429C776.982 303.429 776.139 302.432 776.139 301.201C776.139 299.972 776.982 298.972 778.026 298.972C779.068 298.972 779.912 299.972 779.912 301.201" fill="white"/>
<path fill-rule="evenodd" clip-rule="evenodd" d="M784.482 301.201C784.482 302.432 783.638 303.429 782.596 303.429C781.554 303.429 780.709 302.432 780.709 301.201C780.709 299.972 781.554 298.972 782.596 298.972C783.638 298.972 784.482 299.972 784.482 301.201" fill="white"/>
<path fill-rule="evenodd" clip-rule="evenodd" d="M789.053 301.201C789.053 302.432 788.209 303.429 787.167 303.429C786.125 303.429 785.28 302.432 785.28 301.201C785.28 299.972 786.125 298.972 787.167 298.972C788.209 298.972 789.053 299.972 789.053 301.201" fill="white"/>
<path fill-rule="evenodd" clip-rule="evenodd" d="M705.391 294.095C705.391 292.493 706.439 291.188 707.726 291.188C709.013 291.188 710.059 292.493 710.059 294.095C710.059 295.698 709.013 297.002 707.726 297.002C706.439 297.002 705.391 295.698 705.391 294.095M711.402 300.828L709.59 297.132C710.323 296.434 710.8 295.335 710.8 294.095C710.8 291.981 709.422 290.266 707.726 290.266C706.028 290.266 704.65 291.981 704.65 294.095C704.65 296.21 706.028 297.924 707.726 297.924C708.147 297.924 708.548 297.818 708.915 297.626L710.196 301.584C710.21 301.624 710.227 301.668 710.246 301.708C710.44 302.104 710.858 302.23 711.177 301.987C711.496 301.743 711.597 301.224 711.402 300.828" fill="#121841"/>
<path fill-rule="evenodd" clip-rule="evenodd" d="M723.763 302.668H743.014V288.949H723.763V302.668Z" fill="#F57408"/>
<path fill-rule="evenodd" clip-rule="evenodd" d="M628.631 545.819H787.167V378.128H628.631V545.819Z" fill="#E4EDFF"/>
<path fill-rule="evenodd" clip-rule="evenodd" d="M645.116 475.696H707.9V404.808H645.116V475.696Z" fill="white"/>
<path fill-rule="evenodd" clip-rule="evenodd" d="M721.698 545.819H784.482V486.91H721.698V545.819Z" fill="white"/>
<path fill-rule="evenodd" clip-rule="evenodd" d="M671.235 394.136H747.961V386.513H671.235V394.136Z" fill="#F57408"/>
<path fill-rule="evenodd" clip-rule="evenodd" d="M718.922 408.619H784.482V404.808H718.922V408.619Z" fill="#698BFD"/>
<path fill-rule="evenodd" clip-rule="evenodd" d="M718.922 415.224H784.482V411.412H718.922V415.224Z" fill="#698BFD"/>
<path fill-rule="evenodd" clip-rule="evenodd" d="M718.922 421.83H784.482V418.019H718.922V421.83Z" fill="#698BFD"/>
<path fill-rule="evenodd" clip-rule="evenodd" d="M718.922 428.437H784.482V424.625H718.922V428.437Z" fill="#698BFD"/>
<path fill-rule="evenodd" clip-rule="evenodd" d="M718.922 435.041H784.482V431.23H718.922V435.041Z" fill="#698BFD"/>
<path fill-rule="evenodd" clip-rule="evenodd" d="M718.922 441.647H784.482V437.838H718.922V441.647Z" fill="#698BFD"/>
<path fill-rule="evenodd" clip-rule="evenodd" d="M718.922 448.254H784.482V444.442H718.922V448.254Z" fill="#698BFD"/>
<path fill-rule="evenodd" clip-rule="evenodd" d="M718.922 454.86H784.482V451.048H718.922V454.86Z" fill="#698BFD"/>
<path fill-rule="evenodd" clip-rule="evenodd" d="M718.922 461.465H784.482V457.655H718.922V461.465Z" fill="#698BFD"/>
<path fill-rule="evenodd" clip-rule="evenodd" d="M718.922 468.073H784.482V464.261H718.922V468.073Z" fill="#698BFD"/>
<path fill-rule="evenodd" clip-rule="evenodd" d="M718.922 474.679H784.482V470.867H718.922V474.679Z" fill="#698BFD"/>
<path fill-rule="evenodd" clip-rule="evenodd" d="M446.819 608.269C446.819 618.848 379.724 627.425 296.958 627.425C214.191 627.425 147.097 618.848 147.097 608.269C147.097 597.69 214.191 589.113 296.958 589.113C379.724 589.113 446.819 597.69 446.819 608.269" fill="#2846A6"/>
<path fill-rule="evenodd" clip-rule="evenodd" d="M320.786 609.734H326.732L350.406 489.297L341.788 488.761L320.786 609.734Z" fill="#1F1A15"/>
<path fill-rule="evenodd" clip-rule="evenodd" d="M417.26 611.907H411.314L387.64 491.468L396.259 490.934L417.26 611.907Z" fill="#1F1A15"/>
<path fill-rule="evenodd" clip-rule="evenodd" d="M258.137 598.908H252.193L228.517 478.47L237.136 477.935L258.137 598.908Z" fill="#1F1A15"/>
<path fill-rule="evenodd" clip-rule="evenodd" d="M179.153 607.087H185.099L208.774 486.647L200.154 486.112L179.153 607.087Z" fill="#1F1A15"/>
<path fill-rule="evenodd" clip-rule="evenodd" d="M183.56 396.028V484.613C183.56 491.609 189.206 497.279 196.172 497.279H389.839C396.804 497.279 402.451 491.609 402.451 484.613V396.028C402.451 389.032 396.804 383.36 389.839 383.36H196.172C189.206 383.36 183.56 389.032 183.56 396.028" fill="#450000"/>
<mask id="mask0_2_254" style="mask-type:alpha" maskUnits="userSpaceOnUse" x="184" y="383" width="219" height="115">
<path fill-rule="evenodd" clip-rule="evenodd" d="M323.63 383.057C316.673 383.057 311.031 388.749 311.031 395.771V395.771C311.031 396.19 311.031 396.438 311.03 396.569V396.569C311.03 399.427 311.025 411.179 311.008 452.161V452.161C310.593 458.807 305.122 464.066 298.433 464.066V464.066H221.831C214.871 464.066 209.233 458.374 209.233 451.352V451.352V395.771C209.233 388.749 203.593 383.057 196.635 383.057V383.057C189.677 383.057 184.036 388.749 184.036 395.771V395.771V484.701C184.036 491.721 189.677 497.413 196.635 497.413V497.413H390.089C397.047 497.413 402.687 491.721 402.687 484.701V484.701V395.771C402.687 388.749 397.047 383.057 390.089 383.057V383.057H323.63ZM311.03 396.218C311.03 396.539 311.03 396.861 311.03 396.569V396.569C311.031 395.961 311.031 395.756 311.031 395.756V395.756C311.03 395.754 311.03 395.986 311.03 396.218V396.218Z" fill="white"/>
</mask>
<g mask="url(#mask0_2_254)">
<path fill-rule="evenodd" clip-rule="evenodd" d="M323.63 383.057C316.673 383.057 311.031 388.749 311.031 395.771V395.771C311.031 396.19 311.031 396.438 311.03 396.569V396.569C311.03 399.427 311.025 411.179 311.008 452.161V452.161C310.593 458.807 305.122 464.066 298.433 464.066V464.066H221.831C214.871 464.066 209.233 458.374 209.233 451.352V451.352V395.771C209.233 388.749 203.593 383.057 196.635 383.057V383.057C189.677 383.057 184.036 388.749 184.036 395.771V395.771V484.701C184.036 491.721 189.677 497.413 196.635 497.413V497.413H390.089C397.047 497.413 402.687 491.721 402.687 484.701V484.701V395.771C402.687 388.749 397.047 383.057 390.089 383.057V383.057H323.63ZM311.03 396.218C311.03 396.539 311.03 396.861 311.03 396.569V396.569C311.031 395.961 311.031 395.756 311.031 395.756V395.756C311.03 395.754 311.03 395.986 311.03 396.218V396.218Z" fill="url(#paint0_linear_2_254)"/>
</g>
<path fill-rule="evenodd" clip-rule="evenodd" d="M310.576 452.498C310.594 412.052 310.6 400.168 310.602 397.169V397.171V397.169V397.131V396.948V396.917V396.925V396.904V396.892V396.689V396.683V396.687V396.617V396.436V396.429V396.353V396.289C310.602 389.288 316.246 383.613 323.21 383.613H389.722C396.686 383.613 402.33 389.288 402.33 396.289V484.932C402.33 491.932 396.686 497.606 389.722 497.606H298.66L297.993 464.365C304.687 464.365 310.162 459.121 310.576 452.498" fill="#FABF44"/>
<path d="M310.576 452.498C310.594 412.052 310.6 400.168 310.602 397.169V397.171V397.169V397.131V396.948V396.917V396.925V396.904V396.892V396.689V396.683V396.687V396.617V396.436V396.429V396.353V396.289C310.602 389.288 316.246 383.613 323.21 383.613H389.722C396.686 383.613 402.33 389.288 402.33 396.289V484.932C402.33 491.932 396.686 497.606 389.722 497.606H298.66L297.993 464.365C304.687 464.365 310.162 459.121 310.576 452.498" stroke="black"/>
<path fill-rule="evenodd" clip-rule="evenodd" d="M351.684 497.606H389.722C396.686 497.606 402.33 491.932 402.33 484.932V396.288C402.33 389.288 396.686 383.613 389.722 383.613H351.684C344.721 383.613 339.075 389.288 339.075 396.288V484.932C339.075 491.932 344.721 497.606 351.684 497.606" fill="#F15A24"/>
<path fill-rule="evenodd" clip-rule="evenodd" d="M293.299 217.242C293.299 217.242 272.911 213.13 265.781 229.779C258.65 246.429 259.323 284.079 269.028 293.826C278.734 303.575 277.119 328.549 285.62 335.921C294.123 343.297 315.788 346.627 315.788 329.265C315.788 329.265 305.229 331.379 302.555 320.57C302.555 320.57 317.708 328.967 325.113 316.153C332.517 303.338 316.61 302.149 316.61 302.149C316.61 302.149 322.86 305.777 313.536 303.874C304.211 301.972 310.298 299.221 310.298 289.9C310.298 280.58 316.063 287.166 314.416 270.043C312.772 252.918 300.248 216.653 293.299 217.242" fill="#0E1B29"/>
<path fill-rule="evenodd" clip-rule="evenodd" d="M244.081 584.765L242.103 601.086C242.103 601.086 238.421 613.416 238.421 615.228C238.421 616.428 240.153 626.157 244.76 627.797C247.121 628.639 256.794 616.16 258.079 610.516C259.582 603.919 255.905 583.315 255.905 583.315L244.081 584.765Z" fill="#FC7575"/>
<path fill-rule="evenodd" clip-rule="evenodd" d="M275.843 581.864C275.843 581.864 273.218 605.801 273.218 609.426C273.218 613.052 272.801 618.261 274.53 620.305C276.26 622.351 291.793 616.317 291.793 609.789C291.793 603.261 288.418 581.864 288.418 581.864H275.843Z" fill="#FC7575"/>
<path fill-rule="evenodd" clip-rule="evenodd" d="M309.4 367.848C309.4 351.505 308.827 298.347 308.827 298.347C308.827 298.347 300.654 291.797 284.291 291.797C279.03 291.797 274.192 290.734 268.954 291.861C257.904 294.238 247.857 299.827 247.857 299.827C247.857 299.827 251.248 349.979 245.947 384.22C245.011 390.269 249.01 395.82 254.211 395.82H305.907C309.394 395.82 312.044 392.115 311.473 388.048C310.256 379.369 309.4 372.092 309.4 367.848" fill="#FFDA88"/>
<path fill-rule="evenodd" clip-rule="evenodd" d="M251.174 394.76C242.79 402.437 241.001 405.081 238.615 408.541C219.995 435.561 225.355 472.251 233.819 470.872C242.281 469.495 259.773 465.914 273.313 469.247C286.855 472.584 317.324 471.584 320.145 458.575C322.023 449.912 312.006 419.757 306.585 395.82L251.174 394.76Z" fill="#464A7F"/>
<path fill-rule="evenodd" clip-rule="evenodd" d="M279.552 428.555L273.217 440.313C270.101 448.745 271.919 468.934 271.919 468.934L244.08 467.266L242.757 436.255L279.552 428.555Z" fill="#35385F"/>
<path fill-rule="evenodd" clip-rule="evenodd" d="M274.725 439.563C274.725 439.563 290.522 437.561 296.447 444.566C302.372 451.57 291.087 546.966 292.498 552.303C293.908 557.64 300.679 556.973 296.729 561.642C292.779 566.312 291.792 569.481 293.626 571.649C295.46 573.816 296.165 576.986 294.472 578.988C292.779 580.988 292.215 586.325 292.215 586.325H273.306C273.306 586.325 271.904 572.649 271.904 570.314C271.904 567.979 269.647 561.31 269.647 561.31C269.647 561.31 276.688 556.968 273.306 552.97C269.925 548.972 273.306 542.964 273.306 534.291C273.306 525.619 262.876 441.229 274.725 439.563" fill="#6B6E98"/>
<path fill-rule="evenodd" clip-rule="evenodd" d="M226.852 439.297C232.319 432.834 241.153 432.027 249.899 439.297C258.645 446.568 255.541 464.578 255.541 480.923C255.541 497.267 254.636 537.627 256.075 542.629C257.516 547.634 262.03 552.638 260.337 557.975C258.645 563.312 257.796 562.198 260.71 565.645C263.628 569.092 262.03 571.649 262.03 575.317C262.03 578.987 260.618 590.328 260.618 590.328H242.564C242.564 590.328 241.717 569.98 237.205 561.976C232.691 553.969 236.076 536.627 236.076 533.958C236.076 531.29 230.433 527.953 230.433 516.279C230.433 504.605 223.881 442.808 226.852 439.297" fill="#6B6E98"/>
<path fill-rule="evenodd" clip-rule="evenodd" d="M248.729 299.826C248.729 299.826 245.517 306.467 241.004 321.476C236.49 336.487 244.081 395.97 244.081 405.976C244.081 415.981 254.695 428.555 254.695 428.555L263.721 416.546L257.798 373.186L248.729 299.826Z" fill="#FD5E5A"/>
<path fill-rule="evenodd" clip-rule="evenodd" d="M308.827 298.346C308.827 298.346 321.839 302.139 325.81 323.487C329.781 344.833 333.007 394.867 331.766 400.871C330.526 406.874 297.801 425.44 297.801 425.44L295.036 418.882C295.036 418.882 319.854 393.532 319.854 389.864C319.854 386.193 309.232 340.277 309.232 340.277L308.827 298.346Z" fill="#FD5E5A"/>
<path fill-rule="evenodd" clip-rule="evenodd" d="M208.71 374.519L216.045 436.068L307.449 432.225L305.64 370.523L208.71 374.519Z" fill="#241145"/>
<path fill-rule="evenodd" clip-rule="evenodd" d="M257.575 612.1C249.055 618.479 242.717 617.809 238.427 615.376C238.54 617.065 240.306 626.209 244.761 627.797C246.92 628.567 255.192 618.199 257.575 612.1" fill="#ED1E79"/>
<path fill-rule="evenodd" clip-rule="evenodd" d="M291.792 609.789C291.792 608.338 291.626 606.154 291.366 603.631C286.45 608.857 279.886 612.3 273.536 604.626C273.342 606.884 273.217 608.638 273.217 609.426C273.217 613.052 272.8 618.261 274.53 620.305C276.259 622.351 291.792 616.317 291.792 609.789" fill="#ED1E79"/>
<path fill-rule="evenodd" clip-rule="evenodd" d="M293.557 267.07C293.557 267.07 292.848 268.914 291.771 271.802C288.04 281.809 290.413 297.156 290.601 299.827C290.978 305.186 288.555 316.153 288.555 316.153C288.555 316.153 270.829 301.49 269.826 291.862L279.438 257.051L293.557 267.07Z" fill="#FC7575"/>
<path fill-rule="evenodd" clip-rule="evenodd" d="M279.439 257.051L293.558 267.07C293.558 267.07 292.847 268.919 291.771 271.8C286.802 270.181 279.215 267.219 277.568 263.821L279.439 257.051Z" fill="#FD5E5A"/>
<path fill-rule="evenodd" clip-rule="evenodd" d="M282.854 228.66L304.176 242.572C304.176 242.572 308.601 242.692 308.601 236.865C308.601 231.037 303.17 225.33 297.639 222C292.107 218.672 285.168 217.233 285.168 217.233L282.854 228.66Z" fill="#0E1B29"/>
<path fill-rule="evenodd" clip-rule="evenodd" d="M290.598 222.356C290.598 222.356 298.845 224.021 301.058 228.66C303.27 233.297 303.874 244.357 306.086 246.973C308.3 249.588 310.228 250.164 310.228 250.164C310.228 250.164 310.814 251.373 308.602 252.68C306.389 253.989 308.064 255.417 309.438 255.417C310.814 255.417 309.658 258.508 308.602 258.866C308.602 258.866 309.959 259.339 309.707 260.887C309.456 262.433 308.803 262.731 308.803 262.731C308.803 262.731 308.735 264.752 309.438 266.654C310.143 268.555 308.435 274.205 297.639 271.708C297.639 271.708 281.594 267.248 280.638 261.897C279.686 256.545 272.545 237.095 278.629 229.904C284.712 222.711 290.598 222.356 290.598 222.356" fill="#FC7575"/>
<path fill-rule="evenodd" clip-rule="evenodd" d="M283.154 216.937C283.154 216.937 285.165 213.842 295.224 217.234C305.281 220.623 308.19 234.074 308.19 234.074C308.19 234.074 301.711 228.895 297.638 228.895C293.565 228.895 284.35 227.067 282.853 225.301C281.357 223.53 283.154 216.937 283.154 216.937" fill="#1B3753"/>
<path fill-rule="evenodd" clip-rule="evenodd" d="M285.239 215.854C286.645 215.854 294.771 227.827 292.358 236.746C289.944 245.664 284.212 241.681 280.59 244.058C276.968 246.437 281.292 257.438 280.639 261.897C279.986 266.355 269.826 291.861 269.826 291.861C269.826 291.861 261.279 237.941 266.461 227.951C271.642 217.961 285.239 215.854 285.239 215.854" fill="#1B3753"/>
<path fill-rule="evenodd" clip-rule="evenodd" d="M295.163 253.067C295.163 254.399 297.053 255.478 299.384 255.478C301.717 255.478 303.606 254.399 303.606 253.067C303.606 251.736 301.717 250.655 299.384 250.655C297.053 250.655 295.163 251.736 295.163 253.067" fill="#FD5E5A"/>
<path fill-rule="evenodd" clip-rule="evenodd" d="M305.31 242.572C305.31 242.572 303.923 245.865 298.279 245.712L305.31 242.572Z" fill="#1B3753"/>
<path fill-rule="evenodd" clip-rule="evenodd" d="M303.606 241.961C303.606 241.961 301.511 240.48 299.885 240.48C298.259 240.48 296.758 241.259 296.758 241.961C296.758 241.961 298.54 240.963 299.947 241.221C301.354 241.48 302.011 242.759 302.575 242.759C303.137 242.759 303.606 241.961 303.606 241.961" fill="#1B3753"/>
<path fill-rule="evenodd" clip-rule="evenodd" d="M280.176 252.978C280.176 252.978 287.998 274.407 272.291 298.346C256.585 322.288 235.272 312.597 232.404 302.905C229.534 293.214 239.571 289.9 239.571 289.9C239.571 289.9 237.657 300.865 242.757 300.346C247.858 299.826 249.616 298.405 247.567 286.602C245.518 274.8 252.928 279.531 257.006 271.801C261.082 264.073 257.006 258.173 257.006 249.041C257.006 239.91 266.461 227.95 266.461 227.95L280.176 252.978Z" fill="#1B3753"/>
<path fill-rule="evenodd" clip-rule="evenodd" d="M281.691 245.13C281.691 245.13 278.78 237.637 277.422 239.244C276.065 240.849 275.386 251.907 280.176 252.979C284.966 254.047 281.691 245.13 281.691 245.13" fill="#FC7575"/>
<path fill-rule="evenodd" clip-rule="evenodd" d="M281.481 246.043C281.481 246.043 279.981 241.959 279.166 242.922C278.355 243.883 279.23 250.317 280.324 250.317C281.419 250.317 281.747 248.101 281.481 246.043" fill="#FD5E5A"/>
<path fill-rule="evenodd" clip-rule="evenodd" d="M303.819 245.961C303.819 246.725 303.521 247.345 303.153 247.345C302.785 247.345 302.487 246.725 302.487 245.961C302.487 245.194 302.785 244.573 303.153 244.573C303.521 244.573 303.819 245.194 303.819 245.961" fill="#1B3753"/>
<path fill-rule="evenodd" clip-rule="evenodd" d="M466.149 67.6733C465.68 67.6733 465.203 67.5189 464.78 67.1961C462.706 65.6154 460.56 64.0381 458.409 62.5048C457.211 61.6504 456.826 59.8153 457.545 58.3994C458.265 56.9819 459.82 56.5257 461.017 57.3784C463.215 58.9416 465.405 60.5521 467.521 62.1662C468.696 63.0609 469.035 64.9136 468.278 66.3013C467.793 67.1908 466.98 67.6733 466.149 67.6733" fill="#99D7FF"/>
<mask id="mask1_2_254" style="mask-type:alpha" maskUnits="userSpaceOnUse" x="0" y="0" width="444" height="503">
<path fill-rule="evenodd" clip-rule="evenodd" d="M0.000259399 0.00106812H443.316V502.605H0.000259399V0.00106812Z" fill="white"/>
</mask>
<g mask="url(#mask1_2_254)">
<path fill-rule="evenodd" clip-rule="evenodd" d="M263.501 6.17628H263.443C258.6 6.04996 253.862 5.98505 249.359 5.98505H248.553C247.157 5.98505 246.023 4.64467 246.023 2.99377C246.023 1.34111 247.157 0.000740844 248.553 0.000740844H249.359C253.899 0.000740844 258.677 0.0656542 263.556 0.191972C264.952 0.228815 266.059 1.59901 266.03 3.24992C265.998 4.87977 264.872 6.17628 263.501 6.17628M212.038 7.62371C210.732 7.62371 209.624 6.43773 209.52 4.87279C209.407 3.22364 210.448 1.78327 211.839 1.65169C216.681 1.19379 221.732 0.825359 226.853 0.558688C228.223 0.469213 229.43 1.76572 229.493 3.41838C229.554 5.06753 228.472 6.46405 227.074 6.53773C222.014 6.79738 217.024 7.1623 212.245 7.61494C212.175 7.6202 212.105 7.62371 212.038 7.62371M300.001 8.30971C299.931 8.30971 299.863 8.30445 299.795 8.29918C294.925 7.83602 289.927 7.43952 284.938 7.11846C283.542 7.02723 282.474 5.62019 282.549 3.96754C282.625 2.31839 283.784 1.0938 285.214 1.14293C290.245 1.4675 295.287 1.8675 300.2 2.33593C301.593 2.46751 302.632 3.90789 302.519 5.55528C302.414 7.12197 301.305 8.30971 300.001 8.30971M336.294 13.2729C336.165 13.2729 336.036 13.2606 335.907 13.2361C331.067 12.3606 326.109 11.5536 321.174 10.8448C319.786 10.6466 318.8 9.15531 318.967 7.51493C319.138 5.8728 320.407 4.72541 321.787 4.90612C326.772 5.62543 331.782 6.43597 336.674 7.32546C338.056 7.57458 339.004 9.10092 338.792 10.736C338.6 12.2133 337.521 13.2729 336.294 13.2729M175.832 13.3571C174.648 13.3571 173.59 12.3659 173.353 10.9378C173.086 9.31672 173.981 7.74652 175.353 7.42897C180.165 6.31842 185.167 5.32192 190.221 4.46752C191.592 4.2412 192.885 5.37279 193.084 7.00791C193.279 8.64302 192.319 10.1606 190.936 10.3922C185.969 11.229 181.051 12.208 176.322 13.3027C176.157 13.3396 175.996 13.3571 175.832 13.3571M372.134 21.5976C371.936 21.5976 371.738 21.5696 371.536 21.5134C366.814 20.159 361.935 18.873 357.039 17.6888C355.669 17.359 354.785 15.78 355.065 14.1624C355.344 12.5413 356.679 11.4957 358.049 11.8291C363.008 13.0238 367.946 14.3273 372.729 15.6975C374.088 16.087 374.922 17.7046 374.592 19.3099C374.311 20.6801 373.276 21.5976 372.134 21.5976M140.613 24.6714C139.575 24.6714 138.601 23.9099 138.232 22.6906C137.76 21.1327 138.444 19.4221 139.757 18.8625C144.401 16.8923 149.243 15.0572 154.147 13.4045C155.49 12.9536 156.891 13.8729 157.274 15.4624C157.657 17.0502 156.878 18.7081 155.533 19.1572C150.739 20.7748 146.006 22.5713 141.468 24.4959C141.185 24.6135 140.897 24.6714 140.613 24.6714M407.15 33.8592C406.869 33.8592 406.583 33.8048 406.304 33.689C401.701 31.7574 396.963 29.9118 392.216 28.1977C390.881 27.7135 390.127 26.0433 390.536 24.4626C390.944 22.8819 392.357 21.9889 393.696 22.4748C398.511 24.2152 403.323 26.0889 407.994 28.0486C409.312 28.6012 410 30.3118 409.536 31.868C409.165 33.0943 408.19 33.8592 407.15 33.8592M107.55 42.8717C106.684 42.8717 105.841 42.3453 105.367 41.3962C104.66 39.9751 105.06 38.1418 106.265 37.3014C110.558 34.3136 115.048 31.4715 119.612 28.8521C120.872 28.1346 122.384 28.7521 122.995 30.2364C123.604 31.7259 123.08 33.5154 121.823 34.2347C117.379 36.7838 113.009 39.5505 108.831 42.4594C108.429 42.7401 107.986 42.8717 107.55 42.8717M440.784 50.6595C440.404 50.6595 440.021 50.5613 439.659 50.3472C435.304 47.7858 430.784 45.2998 426.229 42.9576C424.948 42.298 424.361 40.5365 424.917 39.0225C425.475 37.5049 426.966 36.8119 428.245 37.4698C432.884 39.8523 437.481 42.3839 441.912 44.991C443.164 45.7279 443.673 47.5226 443.05 48.9998C442.609 50.0525 441.713 50.6595 440.784 50.6595M78.1684 68.4036C77.4799 68.4036 76.7929 68.072 76.2928 67.4212C75.355 66.1983 75.4337 64.3071 76.4694 63.1965C80.2028 59.1912 84.1201 55.3332 88.1087 51.7297C89.2216 50.7279 90.8064 50.977 91.6566 52.2893C92.5054 53.6016 92.2932 55.4806 91.1818 56.4824C87.3045 59.9859 83.4984 63.7351 79.8689 67.6282C79.3837 68.1457 78.7768 68.4036 78.1684 68.4036M53.2828 99.9796C52.7308 99.9796 52.1743 99.7673 51.7099 99.3305C50.6163 98.3006 50.4353 96.4181 51.3048 95.1251C54.4298 90.4812 57.718 85.8987 61.0804 81.5074C62.0182 80.2775 63.6208 80.1916 64.6565 81.2968C65.6922 82.4056 65.7709 84.2986 64.8331 85.525C61.5419 89.8233 58.3234 94.3058 55.2652 98.8498C54.7651 99.5936 54.0277 99.9796 53.2828 99.9796M32.8071 135.71C32.3813 135.71 31.951 135.584 31.5548 135.315C30.341 134.498 29.9181 132.671 30.6111 131.234C33.0906 126.096 35.7467 120.975 38.5051 116.01C39.2738 114.629 40.8452 114.248 42.01 115.152C43.1763 116.059 43.5027 117.915 42.7356 119.297C40.0335 124.154 37.4338 129.168 35.0062 134.201C34.5403 135.168 33.6856 135.71 32.8071 135.71M17.2238 174.732C16.924 174.732 16.6199 174.67 16.3231 174.539C15.0173 173.951 14.3614 172.223 14.8585 170.679C16.6347 165.147 18.5934 159.603 20.6752 154.194C21.2554 152.693 22.7526 152.03 24.0287 152.712C25.3004 153.398 25.8598 155.17 25.2811 156.677C23.2438 161.968 21.3281 167.395 19.589 172.805C19.2047 173.998 18.2432 174.732 17.2238 174.732M6.99264 216.157C6.82199 216.157 6.65135 216.136 6.47774 216.094C5.10963 215.759 4.22971 214.176 4.51164 212.559C5.52363 206.785 6.71664 200.943 8.06249 195.195C8.43494 193.599 9.82827 192.671 11.1741 193.109C12.5215 193.549 13.3123 195.197 12.9384 196.788C11.6237 202.409 10.4559 208.123 9.4677 213.771C9.21989 215.185 8.16784 216.157 6.99264 216.157M2.53219 258.975C2.49954 258.975 2.46542 258.975 2.43277 258.973C1.03499 258.908 -0.0526756 257.517 0.00222684 255.866C0.198095 249.963 0.573509 243.97 1.11511 238.045C1.26498 236.403 2.51438 235.217 3.90327 235.392C5.29363 235.571 6.29671 237.047 6.14684 238.689C5.61711 244.477 5.2506 250.336 5.05918 256.1C5.00428 257.71 3.88398 258.975 2.53219 258.975M4.16739 302.081C2.91651 302.081 1.82885 300.985 1.66266 299.479C1.51279 298.123 1.37182 296.769 1.23976 295.404C0.797574 290.865 0.454805 286.247 0.223324 281.679C0.138745 280.032 1.20118 278.614 2.596 278.514C3.97598 278.425 5.18977 279.672 5.27435 281.319C5.49989 285.779 5.83524 290.288 6.26704 294.725C6.39465 296.056 6.53413 297.379 6.67955 298.699C6.86058 300.341 5.88569 301.841 4.50126 302.055C4.38849 302.074 4.27868 302.081 4.16739 302.081M12.1609 344.169C11.0925 344.169 10.0983 343.364 9.75259 342.097C8.21236 336.443 6.83386 330.648 5.65272 324.867C5.32479 323.262 6.1602 321.645 7.51792 321.259C8.88009 320.874 10.2437 321.859 10.5717 323.464C11.7231 329.097 13.069 334.75 14.5692 340.262C14.998 341.834 14.2665 343.519 12.9369 344.026C12.6787 344.124 12.4191 344.169 12.1609 344.169M26.4429 383.872C25.5407 383.872 24.6668 383.298 24.2112 382.293C21.8341 377.045 19.595 371.642 17.5591 366.231C16.9908 364.721 17.5636 362.95 18.8412 362.28C20.1158 361.605 21.6145 362.286 22.1813 363.796C24.1697 369.075 26.3524 374.347 28.6717 379.467C29.332 380.926 28.8675 382.739 27.6359 383.517C27.2561 383.76 26.8465 383.872 26.4429 383.872M46.3235 420.044C45.5668 420.044 44.8174 419.648 44.3203 418.883C41.228 414.155 38.2529 409.283 35.4781 404.402C34.6976 403.032 35.0062 401.174 36.1651 400.249C37.324 399.332 38.8969 399.693 39.6774 401.063C42.3913 405.835 45.2997 410.6 48.3223 415.225C49.1785 416.532 48.9752 418.413 47.8682 419.422C47.4082 419.841 46.8622 420.044 46.3235 420.044M70.7492 452.094C70.1171 452.094 69.4879 451.819 68.9953 451.261C65.3569 447.129 61.8001 442.848 58.4228 438.541C57.4732 437.329 57.534 435.438 58.5594 434.315C59.5802 433.192 61.1843 433.259 62.1325 434.474C65.4459 438.696 68.9329 442.894 72.5016 446.945C73.5091 448.09 73.5403 449.983 72.5743 451.175C72.0772 451.787 71.4125 452.094 70.7492 452.094M98.6574 479.905C98.1336 479.905 97.6053 479.712 97.1513 479.315C93.0885 475.751 89.091 472.064 85.276 468.356C84.1958 467.307 84.0415 465.421 84.9273 464.145C85.8147 462.868 87.4083 462.682 88.4886 463.733C92.2397 467.378 96.169 471.005 100.166 474.508C101.288 475.494 101.524 477.368 100.692 478.694C100.195 479.484 99.432 479.905 98.6574 479.905M129.777 502.605C129.37 502.605 128.958 502.491 128.576 502.247C123.141 498.777 118.707 495.896 115.397 493.682C114.18 492.868 113.753 491.044 114.44 489.607C115.131 488.165 116.676 487.665 117.888 488.475C121.17 490.668 125.574 493.532 130.98 496.981C132.21 497.765 132.67 499.581 132.005 501.035C131.548 502.037 130.676 502.605 129.777 502.605" fill="#99D7FF"/>
</g>
<path fill-rule="evenodd" clip-rule="evenodd" d="M539.651 93.6281L465.098 40.2307L446.843 62.2451L539.651 93.6281Z" fill="#0A4CFE"/>
<path fill-rule="evenodd" clip-rule="evenodd" d="M465.086 106L466.151 64.6797L539.651 93.6275L465.086 106Z" fill="#99D7FF"/>
<path fill-rule="evenodd" clip-rule="evenodd" d="M465.008 6.0307L539.651 93.6286L465.098 40.2313L465.008 6.0307Z" fill="#99D7FF"/>
<path fill-rule="evenodd" clip-rule="evenodd" d="M446.843 62.2456L466.151 64.6808L465.997 70.6809L446.843 62.2456Z" fill="#0033BF"/>
<defs>
<linearGradient id="paint0_linear_2_254" x1="131.767" y1="476.835" x2="300.705" y2="608.761" gradientUnits="userSpaceOnUse">
<stop stop-color="#F47938"/>
<stop offset="1" stop-color="#FFFB4D"/>
</linearGradient>
</defs>
</svg>
